<svg width="26" height="40" viewBox="0 0 6.879 10.583" xmlns="http://www.w3.org/2000/svg"><path d="M4.443 3.814c.197 0 .29-.077.29-.266v-.47c0-.197-.093-.278-.29-.278H3.83v-.32h.332c.061 0 .108-.046.108-.131 0-.073-.047-.123-.108-.123h-.914c-.062 0-.108.05-.108.123 0 .085.046.131.108.131h.316v.32h-.586c-.197 0-.285.081-.285.278v.47c0 .189.088.266.285.266h.459c-.139.359-.44.61-.949.787a.12.12 0 0 0-.08.12c0 .022.003.042.011.065.027.058.07.08.12.08a.25.25 0 0 0 .077-.015c.543-.185.886-.497 1.052-.921.259.45.683.775 1.13.921.02.008.035.012.054.012.062 0 .108-.039.131-.1a.225.225 0 0 0 .008-.05.132.132 0 0 0-.093-.128 1.808 1.808 0 0 1-1.022-.77zm-.678-.235c.03-.177.046-.355.054-.536h.532c.073 0 .104.02.104.092v.36c0 .068-.031.084-.104.084zm-.69 0c-.074 0-.105-.016-.105-.085v-.359c0-.073.031-.092.104-.092h.482c-.007.177-.015.359-.054.536zm-.887-1.52v-.674c0-.073-.05-.112-.14-.112-.084 0-.138.039-.138.112v.675h-.405c-.07 0-.108.05-.108.127 0 .073.039.131.108.131h.366a3.714 3.714 0 0 1-.524 1.311.152.152 0 0 0 .027.193.17.17 0 0 0 .085.027c.038 0 .08-.02.108-.062.166-.262.328-.698.4-1.095a7.323 7.323 0 0 0-.057.767v1.319c0 .073.054.116.139.116.089 0 .139-.043.139-.116v-1.55c0-.158-.027-.447-.05-.652.057.197.146.413.239.56a.133.133 0 0 0 .108.061c.03 0 .061-.011.084-.042a.123.123 0 0 0 .039-.089.143.143 0 0 0-.042-.1 2.474 2.474 0 0 1-.367-.648h.259c.065 0 .104-.058.104-.131 0-.077-.039-.127-.104-.127zm1.685-.655a.249.249 0 0 0-.2-.092.254.254 0 0 0-.217.112c-.266.412-.567.69-.91.921a.13.13 0 0 0-.061.112c0 .023.007.05.019.073.03.046.07.07.112.07.027 0 .05-.008.077-.024.381-.242.713-.62.937-.937.019-.023.034-.034.05-.034.015 0 .027.011.042.03.25.324.625.69 1.06.922a.16.16 0 0 0 .078.023c.054 0 .096-.03.123-.085a.151.151 0 0 0 .015-.069c0-.05-.027-.092-.077-.12-.366-.188-.736-.508-1.048-.902z" style="fill:currentColor;stroke-width:.32131" aria-label="検" transform="translate(.278 .06)"/><path d="M3.026 9.074c0 .07.058.116.147.116.088 0 .146-.047.146-.116v-.987c.374-.02.744-.043 1.118-.073.078.084.15.173.213.246.027.035.069.054.115.054.031 0 .062-.007.089-.03a.121.121 0 0 0 .054-.1.164.164 0 0 0-.035-.097 6.19 6.19 0 0 0-.67-.679.167.167 0 0 0-.197-.011c-.043.027-.058.061-.058.096 0 .027.011.054.035.073.077.066.158.14.242.224-.377.027-.76.042-1.137.058.3-.208.61-.486.829-.714a.093.093 0 0 0 .027-.069c0-.042-.027-.085-.073-.112a.162.162 0 0 0-.081-.023c-.047 0-.089.023-.128.07a4.477 4.477 0 0 1-.559.543A5.063 5.063 0 0 0 2.78 7.3c.192-.158.37-.343.524-.536h1.149c.08 0 .123.027.123.112v.316c0 .077.058.116.147.116.088 0 .146-.039.146-.12v-.362c0-.216-.104-.309-.335-.309H3.315v-.339h1.496c.066 0 .1-.062.1-.135 0-.073-.034-.127-.1-.127H3.315v-.193c0-.088-.046-.127-.146-.127-.096 0-.139.039-.139.127v.193h-1.4c-.065 0-.104.058-.104.127 0 .073.039.135.105.135h1.4v.34H1.892c-.232 0-.336.092-.336.308v.359c0 .08.058.12.147.12.088 0 .146-.04.146-.117v-.312c0-.085.043-.112.12-.112h1.002c-.115.147-.25.278-.397.397-.077-.046-.15-.092-.223-.135a.203.203 0 0 0-.09-.023.142.142 0 0 0-.107.05.134.134 0 0 0-.035.085c0 .035.02.074.062.093.247.13.459.277.713.478-.065.05-.13.1-.2.15-.359.004-.702.008-1.018.008-.081 0-.127.05-.127.135.003.073.05.135.142.135.394-.004.856-.016 1.334-.039zm-.408-.787a.159.159 0 0 0-.097-.03.155.155 0 0 0-.108.046c-.204.196-.49.366-.763.482-.058.027-.089.073-.089.127 0 .023.004.046.016.07a.144.144 0 0 0 .13.088c.02 0 .043-.004.062-.015.293-.124.656-.34.876-.571a.134.134 0 0 0 .034-.085.14.14 0 0 0-.061-.112zm1.137-.046c-.039.027-.066.066-.066.112 0 .03.012.065.043.096.224.224.59.467.906.598.023.011.05.015.077.015.062 0 .12-.027.143-.085a.145.145 0 0 0-.081-.2c-.255-.1-.613-.312-.81-.513-.038-.035-.077-.054-.12-.054a.176.176 0 0 0-.092.031z" style="fill:currentColor;stroke-width:.32131" aria-label="索" transform="translate(.278 .06)"/></svg>
