<svg width="26" height="40" viewBox="0 0 6.879 10.583" xmlns="http://www.w3.org/2000/svg"><path style="fill:currentColor;stroke-width:.343583" d="M3.1 7.403c-.079 0-.116.053-.116.14 0 .082.037.14.115.14h2.157c.074 0 .115-.058.115-.14 0-.087-.041-.14-.115-.14h-.28v-.54c0-.236-.108-.33-.347-.33h-.54c.037-.14.074-.285.107-.43h.981c.079 0 .12-.057.12-.14 0-.09-.041-.14-.12-.14H3.24c-.075 0-.116.054-.116.14 0 .083.041.14.116.14h.66a7.22 7.22 0 0 1-.104.43h-.47c-.078 0-.12.053-.12.136 0 .082.042.136.12.136h.392a6.064 6.064 0 0 1-.215.598zm.709 0c.074-.198.144-.396.202-.598h.536c.086 0 .123.02.123.107v.49zm-.215.622c-.247 0-.359.087-.359.334v.701c0 .247.112.338.36.338h1.162c.251 0 .363-.09.363-.338v-.7c0-.248-.112-.335-.359-.335zm.074 1.089c-.09 0-.127-.021-.127-.116v-.59c0-.09.037-.11.127-.11h1.019c.09 0 .128.02.128.11v.59c0 .095-.038.116-.128.116zM1.62 6.376c-.074 0-.111.058-.111.14 0 .083.037.14.111.14h1.262c.07 0 .111-.057.111-.14 0-.082-.041-.14-.111-.14zm1.192.878c.066 0 .103-.066.103-.136 0-.074-.037-.136-.103-.136H1.77c-.07 0-.102.062-.102.136 0 .074.033.136.103.136zM1.776 5.782c-.066 0-.107.054-.107.136 0 .079.041.136.107.136h1.027c.07 0 .107-.057.107-.136 0-.082-.037-.136-.107-.136zM2.91 8.454c0-.21-.1-.297-.318-.297h-.61c-.214 0-.313.087-.313.297V9.1c0 .21.099.297.313.297h.61c.219 0 .318-.087.318-.297zm-.4-.05c.074 0 .111.025.111.1v.535c0 .079-.037.1-.111.1h-.441c-.075 0-.112-.021-.112-.1v-.536c0-.074.037-.099.112-.099zm.297-.556c.07 0 .107-.066.107-.136 0-.074-.037-.136-.107-.136H1.772c-.07 0-.103.062-.103.136 0 .074.033.136.103.136zM3.233 2.23v.626H2.48c-.07 0-.111.05-.111.128s.04.136.11.136h.755v.722h-.935c-.075 0-.116.057-.116.14 0 .078.041.14.116.14h2.284c.074 0 .115-.062.115-.14 0-.083-.041-.14-.115-.14h-1.04V3.12h.854c.074 0 .116-.058.116-.136 0-.078-.042-.128-.116-.128h-.853V2.23h.993c.075 0 .116-.061.116-.14 0-.082-.041-.14-.116-.14H2.343c-.074 0-.111.058-.111.14 0 .079.037.14.11.14zm.743.985c-.05.025-.079.062-.079.107a.08.08 0 0 0 .017.05c.062.094.14.222.194.321a.12.12 0 0 0 .107.066.24.24 0 0 0 .074-.016c.058-.03.087-.075.087-.12a.083.083 0 0 0-.013-.045 2.459 2.459 0 0 0-.206-.33.124.124 0 0 0-.103-.054.202.202 0 0 0-.078.02zM5.22 1.644c0-.26-.12-.38-.38-.38h-2.8c-.259 0-.383.12-.383.38v2.791c0 .26.124.371.384.371h2.8c.26 0 .379-.111.379-.37zM2.17 4.518c-.145 0-.19-.041-.19-.161V1.714c0-.12.045-.16.19-.16h2.544c.14 0 .185.04.185.16v2.643c0 .12-.045.16-.185.16z" aria-label="国語"/></svg>
