<svg width="26" height="40" viewBox="0 0 6.879 10.583" xmlns="http://www.w3.org/2000/svg"><path d="M3.01 2.681c-.02.228-.045.484-.045.778l.009 1.344c0 .099.074.14.16.14.092 0 .166-.037.166-.14l-.012-2.357h.351c.075 0 .125-.067.125-.162s-.05-.165-.125-.165h-.36l-.003-.575c0-.1-.08-.14-.166-.14-.09 0-.165.037-.165.14l.008.575h-.918c-.075 0-.128.07-.128.165s.053.162.128.162h.781c-.12.372-.219.636-.38.947-.161.306-.36.583-.554.785a.162.162 0 0 0-.046.116.19.19 0 0 0 .042.116.177.177 0 0 0 .136.062c.033 0 .07-.012.095-.037a3.399 3.399 0 0 0 .864-1.758zm2.255.629A7.838 7.838 0 0 0 5.62 1.8v-.033c0-.09-.066-.136-.153-.149-.012-.004-.024-.004-.041-.004-.074 0-.145.033-.161.137-.054.372-.128.918-.327 1.443a2.984 2.984 0 0 1-.91 1.282.171.171 0 0 0-.07.132.16.16 0 0 0 .041.108.189.189 0 0 0 .157.083.159.159 0 0 0 .104-.038c.426-.355.765-.81 1.005-1.451z" style="fill:currentColor;stroke-width:.34463" aria-label="ｵﾉ" transform="matrix(1 0 0 .81499 -.337 .858)"/><path d="M1.983 6.281c-.095 0-.136.07-.136.161 0 .1.041.17.136.17l1.208-.004c.078 0 .112.016.112.074 0 .017-.005.033-.009.058a4.084 4.084 0 0 1-.566 1.278 8.346 8.346 0 0 0-.443-.662.15.15 0 0 0-.116-.062.213.213 0 0 0-.115.038c-.042.033-.067.074-.067.12 0 .037.013.074.042.111.343.463.707 1.108.96 1.646a.15.15 0 0 0 .136.087.217.217 0 0 0 .095-.025c.062-.029.09-.078.09-.132a.202.202 0 0 0-.02-.079 11.473 11.473 0 0 0-.38-.728 5.227 5.227 0 0 0 .744-1.6c.012-.05.017-.1.017-.14 0-.2-.133-.315-.364-.315zm2.655 1.46c0-.124-.004-.227-.008-.323.285.203.562.43.798.687a.143.143 0 0 0 .108.045c.045 0 .095-.02.136-.07a.175.175 0 0 0 .046-.12.197.197 0 0 0-.054-.128c-.265-.281-.662-.57-1.026-.806v-1.01c0-.103-.074-.144-.17-.144-.09 0-.165.041-.165.14v3.255c0 .103.075.145.166.145.095 0 .17-.042.17-.15z" style="fill:currentColor;stroke-width:.34463" aria-label="ﾏﾄ" transform="matrix(1 0 0 .81499 -.337 .858)"/></svg>
