<svg width="26" height="40" viewBox="0 0 6.879 10.583" xmlns="http://www.w3.org/2000/svg"><path d="M5.094 4.088c.067 0 .103-.06.103-.131 0-.067-.036-.123-.103-.123H3.806c.02-.083.036-.17.048-.257h1.073c.064 0 .1-.06.1-.123 0-.071-.036-.13-.1-.13h-1.05a3.58 3.58 0 0 0 .009-.207c0-.02.004-.043.004-.063h.776c.21 0 .305-.08.305-.273v-.345c0-.194-.095-.277-.305-.277h-1.72c-.213 0-.304.083-.304.277v.345c0 .194.091.273.305.273h.673l-.012.27h-.903c-.063 0-.099.059-.099.13 0 .067.036.123.1.123h.875a1.86 1.86 0 0 1-.056.257h-.998c-.067 0-.103.056-.103.123 0 .071.036.13.103.13h.875l-.004.008c-.194.286-.522.452-.946.559a.133.133 0 0 0-.1.13c0 .016 0 .028.009.044.02.075.075.107.134.107a.232.232 0 0 0 .052-.008c.455-.11.851-.344 1.07-.673.023-.036.047-.075.067-.111.324.436.875.681 1.307.776.02.004.035.004.051.004.071 0 .123-.035.143-.11.004-.016.008-.028.008-.044a.136.136 0 0 0-.12-.139c-.391-.075-.835-.257-1.1-.542zm-1.2-1.272c.003-.138.003-.281.003-.42h.694c.067 0 .103.02.103.087v.25c0 .067-.036.083-.103.083zm-.872 0c-.071 0-.103-.016-.103-.083v-.25c0-.067.032-.087.103-.087h.606c0 .139 0 .282-.004.42zm.123-1.034v.19c0 .068.055.104.139.104.083 0 .13-.036.13-.103v-.19h.74v.182c0 .07.048.107.132.107.087 0 .138-.036.138-.107v-.183h.65c.071 0 .11-.043.11-.122 0-.084-.039-.131-.11-.131h-.65v-.182c0-.068-.051-.103-.138-.103-.084 0-.131.035-.131.103v.182h-.74v-.174c0-.068-.048-.103-.131-.103-.084 0-.14.035-.14.103v.174h-.518c-.071 0-.11.047-.11.13 0 .08.039.123.11.123zM2.4 1.72a3.124 3.124 0 0 0-.487-.388.15.15 0 0 0-.087-.028.158.158 0 0 0-.123.064.15.15 0 0 0-.035.095c0 .043.02.087.055.11.166.111.325.242.46.373a.168.168 0 0 0 .118.047c.04 0 .083-.016.115-.051a.152.152 0 0 0 .036-.1.171.171 0 0 0-.052-.122zm-.67.582a.18.18 0 0 0-.078-.02.154.154 0 0 0-.123.06.181.181 0 0 0-.032.095c0 .047.02.087.056.107.17.103.372.253.526.396a.14.14 0 0 0 .103.04.16.16 0 0 0 .159-.155.156.156 0 0 0-.052-.115 3.66 3.66 0 0 0-.558-.408zm.551 1.165a.18.18 0 0 0-.063-.012.13.13 0 0 0-.13.099 4.782 4.782 0 0 1-.492 1.065.15.15 0 0 0-.027.087.15.15 0 0 0 .079.127.208.208 0 0 0 .09.024.15.15 0 0 0 .136-.075c.202-.325.38-.737.506-1.125.004-.02.008-.036.008-.056a.137.137 0 0 0-.107-.134z" style="fill:currentColor;stroke-width:.330059" aria-label="漢"/><path d="M3.566 6.116V5.83c0-.083-.051-.13-.154-.13-.1 0-.155.047-.155.13v.286H2.073c-.241 0-.348.103-.348.332v.412c0 .08.067.119.158.119s.158-.04.158-.115v-.356c0-.091.044-.115.127-.115h2.547c.08 0 .123.024.123.115v.356c0 .075.067.115.158.115.095 0 .159-.04.159-.119v-.412c0-.23-.107-.332-.345-.332zm.02 1.984H5.1c.071 0 .111-.063.111-.147 0-.079-.044-.138-.115-.138H3.586v-.127c.349-.139.681-.325.927-.535a.242.242 0 0 0 .083-.174c0-.103-.075-.194-.226-.194H2.34c-.072 0-.115.055-.115.135 0 .083.043.142.115.142h1.786c.024 0 .035.008.035.02s-.007.024-.023.036a2.6 2.6 0 0 1-.638.344.348.348 0 0 0-.067-.008c-.091 0-.147.044-.147.115v.246H1.776c-.071 0-.107.06-.107.142 0 .08.04.143.111.143h1.505v.768c0 .135-.043.163-.194.163a1.69 1.69 0 0 1-.376-.04c-.012-.004-.024-.004-.036-.004-.063 0-.115.04-.13.119a.232.232 0 0 0-.008.051c0 .072.04.127.102.139.131.028.313.044.472.044.313 0 .471-.107.471-.365z" style="fill:currentColor;stroke-width:.330059" aria-label="字"/></svg>
