<svg xmlns="http://www.w3.org/2000/svg" width="240" height="240" viewBox="0 0 63.5 63.5"><path d="M.066 21.116v21.268h63.368V21.116z" fill="#e10031"/><path d="M7.29 8.797a7.208 7.208 0 00-7.224 7.224v6.844h63.368V16.02a7.208 7.208 0 00-7.224-7.224z" fill="#0099c4"/><path d="M.066 40.574v6.905a7.208 7.208 0 007.224 7.224h48.92a7.208 7.208 0 007.224-7.224v-6.905z" fill="#00b065"/><path d="M30.022 24.696a7.025 7.025 0 00-6.995 7.024 7.025 7.025 0 007.024 7.025 7.025 7.025 0 005.469-2.616 5.933 5.933 0 01-4.02 1.569 5.933 5.933 0 01-5.932-5.932 5.933 5.933 0 015.932-5.933 5.933 5.933 0 014.285 1.83 7.025 7.025 0 00-5.734-2.967 7.025 7.025 0 00-.029 0z" fill="#fff"/><path d="M41.858 31.729l-2.163.769.986 2.073-2.073-.985-.77 2.162-.768-2.162-2.073.985.985-2.073-2.163-.77 2.163-.768-.985-2.073 2.073.985.769-2.163.769 2.163 2.073-.985-.986 2.073z" fill="#fff"/></svg>