<svg xmlns="http://www.w3.org/2000/svg" viewBox="0 0 16 16"><path fill="#ffeea3" d="M10,15.5c-3.033,0-5.5-2.467-5.5-5.5S6.967,4.5,10,4.5c0.063,0,0.126,0.001,0.189,0.003 C9.143,5.34,8.5,6.618,8.5,8c0,2.481,2.019,4.5,4.5,4.5c0.754,0,1.491-0.195,2.146-0.556C14.358,14.042,12.337,15.5,10,15.5z"></path><path fill="#f5c276" d="M8.928 5.116C8.338 5.941 8 6.943 8 8c0 2.757 2.243 5 5 5 .37 0 .736-.042 1.092-.124C13.185 14.169 11.683 15 10 15c-2.757 0-5-2.243-5-5C5 7.611 6.684 5.608 8.928 5.116M10 4c-3.314 0-6 2.686-6 6s2.686 6 6 6c3.088 0 5.628-2.333 5.961-5.332C15.229 11.48 14.179 12 13 12c-2.209 0-4-1.791-4-4 0-1.743 1.121-3.21 2.676-3.758C11.144 4.087 10.582 4 10 4L10 4zM2 4H3V7H2z"></path><path fill="#f5c276" d="M1 5H4V6H1zM4 0H5V3H4z"></path><path fill="#f5c276" d="M3 1H6V2H3z"></path><g><path fill="#fff9de" d="M15.56 11.032L15.56 11.032c-.157.134-.326.252-.501.362C15.236 11.285 15.403 11.166 15.56 11.032zM14.149 11.807c-.123.039-.244.081-.372.107C13.906 11.889 14.025 11.846 14.149 11.807zM14.936 11.468c-.151.088-.309.165-.471.233C14.629 11.634 14.783 11.554 14.936 11.468zM11.063 4.108c.207.038.414.076.614.134C11.477 4.184 11.271 4.142 11.063 4.108z"></path></g></svg>