<svg xmlns="http://www.w3.org/2000/svg" viewBox="0 0 80 25"><path d="M50.64 2.8c-1.6-.6-3.4.3-4 1.9 0 0-1.5 4.2-1.7 4.9h-7.1l1-2.9c.3-.8.2-1.6-.1-2.4-.3-.8-1-1.3-1.8-1.6-1.6-.6-3.4.3-4 1.9l-4.8 13.6c-.3.8-.2 1.6.1 2.4.4.8 1 1.3 1.8 1.6 1.6.6 3.4-.3 4-1.9 0 0 1.3-3.7 1.7-4.9h7.1l-1 2.9c-.3.8-.2 1.6.1 2.4.4.8 1 1.3 1.8 1.6 1.6.6 3.4-.3 4-1.9L52.44 7c.3-.8.2-1.6-.1-2.4-.3-.9-.9-1.5-1.7-1.8zM24.14 2.8c-1.6-.6-3.4.3-4 1.9 0 0-1.9 5.4-2.8 7.8L11.94 4c-.7-1-1.8-1.5-3-1.4-1.2.2-2.2 1-2.6 2.2l-4.7 13.3c-.3.8-.2 1.6.1 2.4.4.8 1 1.3 1.8 1.6 1.6.6 3.4-.3 4-1.9 0 0 1.9-5.4 2.8-7.8l5.4 8.5c.7 1 1.8 1.5 3 1.4 1.2-.1 2.2-.9 2.6-2.1l4.7-13.4c.3-.8.2-1.6-.1-2.4-.4-.7-1-1.3-1.8-1.6zM77.94 4c-.9-1.3-2.7-1.7-4.1-.8 0 0-6.6 4.4-9.6 6.5l1-2.8c.3-.8.2-1.6-.1-2.4-.3-.8-1-1.3-1.8-1.6-1.6-.6-3.4.3-4 1.9l-4.7 13.4c-.3.8-.2 1.6.1 2.4.4.8 1 1.3 1.8 1.6 1.6.6 3.4-.3 4-1.9 0 0 1.5-4.2 2.1-6.1l7.9 7.3c1.1 1.2 3.1 1.2 4.3.1.6-.6.9-1.3.9-2.1s-.3-1.6-.8-2.1l-5-4.3 7.4-5c.7-.4 1.1-1.1 1.2-1.9 0-.8-.2-1.6-.6-2.2z" fill="#b83f73"/></svg>