<svg xmlns="http://www.w3.org/2000/svg" width="16" height="16" viewBox="0 0 4.233 4.233"><path d="M2.766 1.687a1.302 1.208 0 00-1.291 1.208 1.302 1.208 0 001.302 1.208 1.302 1.208 0 00.705-.192l.397.118-.136-.324a1.302 1.208 0 00.336-.81 1.302 1.208 0 00-1.302-1.208 1.302 1.208 0 00-.011 0z" fill="#f78f8f"/><path d="M2.778 1.593A1.448 1.317 0 001.33 2.91a1.448 1.317 0 001.448 1.317 1.448 1.317 0 00.701-.164c.239.1.499.156.752.164a2.968 2.968 0 01-.309-.51 1.448 1.317 0 00.304-.807 1.448 1.317 0 00-1.448-1.317zm.003.265a1.187 1.054 0 011.187 1.054 1.187 1.054 0 01-.36.757c.037.077.088.184.092.196l-.231-.094a1.187 1.054 0 01-.688.195 1.187 1.054 0 01-1.187-1.054A1.187 1.054 0 012.78 1.858z" fill="#c74343"/><path d="M1.451.15A1.291 1.184 0 00.16 1.335a1.291 1.184 0 00.355.816l-.176.41.458-.205a1.291 1.184 0 00.654.163 1.291 1.184 0 001.292-1.184A1.291 1.184 0 001.45.15z" fill="#8bb7f0"/><path d="M1.456.01A1.447 1.313 0 00.008 1.325a1.447 1.313 0 00.333.838c-.108.227-.21.41-.329.561.318-.02.604-.094.82-.214a1.447 1.313 0 00.624.129 1.447 1.313 0 001.447-1.314A1.447 1.313 0 001.456.011zm-.01.269a1.189 1.05 0 01.014 0 1.189 1.05 0 011.189 1.05 1.189 1.05 0 01-1.19 1.05 1.189 1.05 0 01-.61-.15c-.108.051-.216.096-.317.135.042-.083.088-.17.128-.258a1.189 1.05 0 01-.389-.777A1.189 1.05 0 011.447.28z" fill="#4e7ab5"/><path d="M1.434.6C1.081.6.846.888.846 1.29c0 .468.24.687.588.691a.568.568 0 00.173-.024l.161.18h.372l-.304-.323a.748.748 0 00.186-.524C2.022.854 1.788.6 1.434.6zM1.43.855a.307.434 0 01.002 0 .307.434 0 01.307.434.307.434 0 01-.307.434.307.434 0 01-.307-.434.307.434 0 01.305-.434zM2.61 2.112l-.482 1.333h.324l.094-.298h.462l.104.298h.323l-.473-1.333zm.166.235l.176.572h-.344z" fill="#fff"/></svg>