<svg xmlns="http://www.w3.org/2000/svg" viewBox="0 0 16 16"><path fill="#b6c9d6" d="M1.136,15.5c-0.17,0-0.33-0.066-0.45-0.186c-0.248-0.248-0.248-0.651,0-0.899l8.09-7.713 l0.525,0.526l-7.724,8.095C1.465,15.434,1.306,15.5,1.136,15.5z"></path><path fill="#788b9c" d="M5.191,10.811L1.232,14.96C1.205,14.987,1.173,15,1.136,15c-0.026,0-0.063-0.007-0.096-0.04 c-0.053-0.053-0.053-0.139-0.017-0.175L5.191,10.811 M8.785,6.003l-8.452,8.058c-0.444,0.444-0.444,1.163,0,1.606 C0.554,15.889,0.845,16,1.136,16c0.291,0,0.581-0.111,0.803-0.333L10,7.22L8.785,6.003L8.785,6.003z"></path><g><path fill="#d1edff" d="M10 0.5A5.5 5.5 0 1 0 10 11.5A5.5 5.5 0 1 0 10 0.5Z"></path><path fill="#788b9c" d="M10,1c2.757,0,5,2.243,5,5s-2.243,5-5,5S5,8.757,5,6S7.243,1,10,1 M10,0C6.686,0,4,2.686,4,6 s2.686,6,6,6s6-2.686,6-6S13.314,0,10,0L10,0z"></path></g></svg>