<svg xmlns="http://www.w3.org/2000/svg" viewBox="0 0 16 16"><path fill="#ffeea3" d="M7.286,13.453L7.037,13.41c-0.304-0.053-0.61-0.135-0.909-0.244L5.892,13.08L4.56,13.96l0.096-1.59 l-0.192-0.162c-0.242-0.203-0.468-0.429-0.672-0.67L3.63,11.346l-1.59,0.095l0.88-1.333L2.834,9.872 C2.727,9.576,2.645,9.27,2.59,8.962L2.546,8.714L1.118,8l1.428-0.714L2.59,7.038c0.055-0.308,0.137-0.614,0.244-0.91L2.92,5.892 L2.04,4.559l1.59,0.095l0.161-0.192c0.204-0.242,0.43-0.468,0.672-0.67L4.655,3.63L4.56,2.04l1.332,0.88l0.236-0.085 C6.427,2.726,6.733,2.644,7.037,2.59l0.249-0.043L8,1.118l0.714,1.429L8.963,2.59c0.304,0.053,0.61,0.135,0.909,0.244l0.236,0.085 l1.332-0.88l-0.096,1.59l0.192,0.162c0.242,0.203,0.468,0.429,0.672,0.67l0.161,0.192l1.59-0.095l-0.88,1.333l0.086,0.236 c0.107,0.296,0.189,0.602,0.244,0.91l0.044,0.248L14.882,8l-1.428,0.714L13.41,8.962c-0.055,0.308-0.137,0.614-0.244,0.91 l-0.086,0.236l0.88,1.333l-1.59-0.095l-0.161,0.192c-0.204,0.242-0.43,0.468-0.672,0.67l-0.192,0.162l0.096,1.59l-1.332-0.88 l-0.236,0.085c-0.299,0.109-0.605,0.191-0.909,0.244l-0.249,0.043L8,14.882L7.286,13.453z"></path><path fill="#ba9b48" d="M8,2.236l0.154,0.309l0.225,0.45l0.495,0.088C9.152,3.131,9.43,3.206,9.702,3.304l0.473,0.171 l0.419-0.277l0.288-0.19l-0.02,0.341l-0.03,0.502l0.384,0.324c0.22,0.185,0.425,0.39,0.61,0.61l0.323,0.384l0.501-0.03l0.341-0.02 l-0.191,0.289l-0.277,0.419l0.171,0.472c0.098,0.272,0.173,0.55,0.222,0.827l0.088,0.495l0.45,0.225L13.764,8l-0.309,0.154 l-0.45,0.225l-0.088,0.495c-0.049,0.277-0.124,0.555-0.222,0.827l-0.171,0.472l0.277,0.419l0.191,0.289l-0.341-0.02l-0.502-0.03 l-0.324,0.384c-0.185,0.219-0.39,0.425-0.61,0.61l-0.384,0.324l0.03,0.501l0.02,0.341l-0.288-0.19l-0.419-0.277l-0.473,0.171 c-0.271,0.098-0.55,0.173-0.827,0.222l-0.495,0.088l-0.225,0.45L8,13.764l-0.154-0.309l-0.225-0.45l-0.495-0.088 c-0.277-0.049-0.555-0.124-0.827-0.222l-0.473-0.171l-0.419,0.277l-0.288,0.19l0.02-0.341l0.03-0.501l-0.384-0.324 c-0.22-0.185-0.425-0.39-0.61-0.61l-0.324-0.384l-0.502,0.03l-0.341,0.02l0.191-0.289l0.277-0.419L3.304,9.701 C3.206,9.43,3.131,9.152,3.082,8.875L2.995,8.379l-0.45-0.225L2.236,8l0.309-0.154l0.45-0.225l0.088-0.495 C3.131,6.848,3.206,6.57,3.304,6.298l0.171-0.472L3.199,5.407L3.008,5.118l0.341,0.02l0.501,0.03l0.323-0.384 c0.185-0.22,0.39-0.425,0.61-0.61l0.384-0.324l-0.03-0.502l-0.02-0.341l0.288,0.19l0.419,0.277l0.473-0.171 c0.271-0.098,0.55-0.173,0.827-0.222l0.495-0.088l0.225-0.45L8,2.236 M8,0L6.951,2.097C6.609,2.158,6.277,2.248,5.958,2.364 L4,1.072l0.14,2.338C3.876,3.632,3.632,3.876,3.409,4.14L1.072,4l1.292,1.958c-0.116,0.32-0.206,0.651-0.267,0.994L0,8l2.097,1.049 c0.061,0.343,0.151,0.674,0.267,0.994L1.072,12l2.338-0.14c0.222,0.264,0.467,0.509,0.731,0.731L4,14.928l1.957-1.292 c0.32,0.116,0.651,0.206,0.994,0.267L8,16l1.049-2.097c0.343-0.061,0.674-0.151,0.994-0.267L12,14.928l-0.14-2.337 c0.264-0.222,0.509-0.467,0.731-0.731L14.928,12l-1.292-1.958c0.116-0.32,0.206-0.651,0.267-0.994L16,8l-2.097-1.049 c-0.061-0.343-0.151-0.674-0.267-0.994L14.928,4l-2.338,0.14c-0.222-0.264-0.467-0.509-0.731-0.731L12,1.072l-1.958,1.292 c-0.32-0.116-0.651-0.206-0.994-0.267L8,0L8,0z"></path><path fill="#f5ce85" d="M8 5A3 3 0 1 0 8 11A3 3 0 1 0 8 5Z"></path></svg>