<svg xmlns="http://www.w3.org/2000/svg" viewBox="0 0 16 16"><path fill="#fff" d="M3.5 0.5H12.5V7.5H3.5z"></path><path fill="#788b9c" d="M12,1v6H4V1H12 M13,0H3v8h10V0L13,0z"></path><path fill="#66798f" d="M0 7H16V8H0z"></path><path fill="#66798f" d="M1 6L0 6 0 9 1 9 1 6zM16 6L15 6 15 9 16 9 16 6z"></path><path fill="#f5ce85" d="M3.021,15.5c-0.274,0-0.499-0.224-0.5-0.5L2.501,6.5h3.105c0.29,0.627,1.152,1,2.394,1 c1.264,0,2.116-0.365,2.397-1H13.5V15c0,0.276-0.225,0.5-0.5,0.5H3.021z"></path><path fill="#c29653" d="M13,7v8H3.022l-0.02-8h2.313C5.776,7.634,6.721,8,8,8c1.574,0,2.327-0.49,2.685-1H13 M14,6h-4 c0,0.782-1.086,1-2,1S6,6.747,6,6H2l0.022,9.002C2.023,15.554,2.471,16,3.022,16H13c0.552,0,1-0.448,1-1V6L14,6z"></path><g><path fill="#839cb2" d="M4.5 10.5H11.5V13.5H4.5z"></path><path fill="#66798f" d="M11,11v2H5v-2H11 M12,10H4v4h8V10L12,10z"></path></g><g><path fill="#839cb2" d="M7.368,7.472C6.222,7.367,5.689,6.987,5.5,6.812V6.5h0.102c0.133,0.308,0.428,0.636,1.057,0.831 C6.898,7.405,7.147,7.448,7.368,7.472z M8.815,7.452C9.635,7.333,10.188,7,10.401,6.5H10.5v0.313 C10.327,6.973,9.843,7.325,8.815,7.452z"></path><path fill="#66798f" d="M11,6h-1c0,0.94-1.515,1.001-1.908,1.001C8.034,7.001,8,7,8,7S7.966,7.001,7.908,7.001 C7.515,7.001,6,6.94,6,6H5v1c0,0,0.632,1,3,1s3-1,3-1V6L11,6z"></path></g></svg>