<svg xmlns="http://www.w3.org/2000/svg" width="120" height="120" viewBox="0 0 31.75 31.75"><path d="M.524 14.12a.2.2 0 00-.03.002c-.591.093.042 1.679.685 2.772.351.598.933 1.473 1.762 1.483.225.003.435-.008.611-.058l-.003.048c0 .694.626.938 1.118.938.605 0 1.35-.318 1.35-1.012 0-.693-.58-1.054-1.185-1.054-.277 0-.567.092-.803.256-.237-.825-2.875-3.378-3.505-3.376zM7.737 20.131c-.502.006-1.369.388-1.778.46-.47.081-1.234.203-1.66.604a6.793 6.793 0 00-1.396-.523c-.784-.19-2.945-.665-2.822.202.128.899 2.752 2.247 3.776 2.267.35.007.72-.12.973-.363.44.149.983.137 1.442-.182.497-.345 1.846-1.482 1.846-2.176 0-.216-.153-.291-.38-.289zM9.545 22.144c-.285-.01-1.32.747-1.76 1.103-.156.126-.517.392-.86.48-.376.094-.609.186-.785.427-.166.23-.288.437-.347.64a2.852 2.852 0 00-.758.052c-.593.122-3.475 1.224-3.466 1.956.008.693 2.539.494 3.14.431.941-.097 1.79-.47 2.031-1.13.536.015 1.146-.358 1.542-.89.361-.486 1.586-2.878 1.31-3.057a.09.09 0 00-.047-.012zM10.58.969c-.162 3.205-1.833 3.734-4.999 6.26l-2.455 3.234c-.53.524-.66 1.26-.435 1.625.918 1.589 2.397 3.021 3.824 4.093l.421-.993c-.044-1.292-.888-2.757-1.402-4.144 3.298-1.872 5.09-3.981 5.71-5.997.258-.838.446-3.283-.664-4.078z" fill="#a0041e"/><path d="M5.422 9.448C6.793 7.508 8.038 4.865 8.75 3.08c.352-.884.823-1.682 1.23-2.519.099-.203.002-.435-.241-.416-1.744.137-3.291.507-4.342 1.673-1.681 1.865-2.831 4.99-2.908 7.179-.025.725.122 1.6 1.028 1.748.612.1 1.471-.685 1.905-1.298z" fill="#be1931"/><path d="M12.073 23.695c-.656.013-2.09 1.317-2.292 1.911a2.792 2.792 0 00-.146.667c-.527.18-1.045.853-1.01 2.116.03 1.034.256 3.351.844 3.21 1.085-.262 1.412-1.07 1.55-2.664.06-.688.068-1.289-.03-1.75.404-.206.734-.645.985-1.151.308-.622 1.008-1.875.276-2.3a.334.334 0 00-.177-.039zM21.177.96c.161 3.205 1.833 3.734 4.998 6.26l2.456 3.234c.53.525.66 1.26.434 1.625-.917 1.589-2.396 3.021-3.823 4.094l-.422-.994c.044-1.292.888-2.757 1.402-4.144-3.298-1.871-5.09-3.981-5.71-5.997-.257-.838-.445-3.283.665-4.078z" fill="#a0041e"/><path d="M26.335 9.439c-1.372-1.94-2.616-4.583-3.328-6.367-.353-.884-.824-1.681-1.23-2.519-.099-.203-.003-.435.241-.416 1.744.137 3.29.507 4.342 1.673 1.681 1.866 2.831 4.99 2.907 7.18.026.724-.122 1.6-1.027 1.747-.613.1-1.472-.685-1.905-1.298z" fill="#be1931"/><path d="M31.226 14.129a.2.2 0 01.03.002c.591.093-.042 1.68-.685 2.772-.351.598-.933 1.473-1.762 1.483a2.212 2.212 0 01-.611-.058l.003.048c0 .694-.626.938-1.118.938-.605 0-1.35-.318-1.35-1.011 0-.694.58-1.054 1.185-1.054.277 0 .567.091.803.256.237-.825 2.875-3.378 3.505-3.376zM24.013 20.14c.502.007 1.369.388 1.778.46.47.082 1.234.203 1.66.604.498-.26 1.09-.449 1.396-.523.784-.19 2.945-.664 2.822.203-.128.898-2.752 2.247-3.776 2.267-.35.007-.72-.122-.973-.364-.44.15-.983.137-1.442-.181-.497-.345-1.846-1.483-1.846-2.176 0-.217.153-.292.38-.29zM19.677 23.704c.656.014 2.09 1.317 2.292 1.912.074.215.129.446.146.667.527.18 1.045.852 1.01 2.115-.03 1.035-.256 3.352-.844 3.21-1.085-.262-1.412-1.07-1.55-2.664-.06-.687-.068-1.289.03-1.75-.404-.206-.734-.645-.985-1.15-.308-.622-1.008-1.875-.276-2.3a.334.334 0 01.177-.04zM22.205 22.153c.285-.01 1.32.748 1.76 1.104.156.125.517.392.86.479.376.095.609.186.785.428.166.229.288.436.347.64.252-.017.52.002.758.051.593.122 3.475 1.225 3.466 1.956-.008.694-2.539.494-3.14.432-.941-.098-1.79-.471-2.031-1.13-.536.015-1.146-.358-1.542-.891-.361-.486-1.586-2.877-1.31-3.057a.09.09 0 01.047-.012z" fill="#a0041e"/><path d="M5.201 19.407c.499-5.594 5.367-8.901 10.664-8.896 5.687.005 9.988 3.339 10.704 8.875-1.406.589-2.987 2.166-4.341 3.434-1.834 1.718-2.993 2.666-6.501 2.68-3.126.013-4.793-1.303-6.139-2.87-1.27-1.481-2.861-2.681-4.387-3.223z" fill="#be1931"/><g fill="#dd2e44"><path d="M13.167 14.414c-.172.611-.555.936-1 .876-.643-.087-1.454-.272-1.454-.907s.673-.937 1.311-1.119c.83-.236 1.367.354 1.143 1.15zM10.507 15.463c.004.525-.082 1.041-.878.895-.587-.108-1.3-.426-1.164-.934.136-.514.609-.93 1.142-.996.646-.081.895.408.9 1.035zM8.669 16.942c.224.77.027.895-.77.888-.634-.005-1.14-.24-1.15-.778-.009-.472.495-1.105.95-1.134.359-.022.86.649.97 1.024zM7.849 18.62c.234.37.085.516-.96.543-.686.018-1.105-.134-1.078-.54.028-.422.31-.832.774-.807.649.036 1.072.5 1.264.804z"/></g><g fill="#dd2e44"><path d="M18.514 14.412c.172.612.555.936 1 .876.643-.087 1.454-.272 1.454-.907s-.673-.937-1.311-1.118c-.829-.237-1.366.354-1.143 1.15zM21.174 15.461c-.004.525.082 1.042.878.895.587-.108 1.3-.426 1.164-.933a1.394 1.394 0 00-1.142-.997c-.645-.08-.895.409-.9 1.035zM23.012 16.94c-.224.771-.027.895.77.889.634-.006 1.14-.24 1.15-.779.009-.471-.495-1.105-.95-1.133-.358-.023-.86.648-.97 1.023zM23.833 18.618c-.235.37-.085.516.958.543.687.018 1.106-.134 1.08-.54-.029-.422-.31-.832-.775-.806-.649.035-1.072.5-1.263.803z"/></g><path d="M18.125 8.881c-.591.024-1.339 1.114-1.358 1.909a.919.919 0 00.02.209 14.365 14.365 0 00-.992-.039c-.267 0-.538.009-.81.026a.914.914 0 00.012-.162c-.02-.82-.817-1.955-1.416-1.908-.603.048-1.237.393-1.227 1.494.004.423.075.744.188.986-1.948.53-3.668 1.521-4.432 2.845 2.18-1.507 4.574-1.911 7.771-1.961 3.293-.051 5.468.571 7.807 1.93-.993-1.21-2.494-2.238-4.49-2.798.126-.247.206-.584.21-1.036.012-1.101-.623-1.446-1.226-1.494a.475.475 0 00-.057 0z" fill="#a0041e"/><path d="M14.104 8.211c0 .778-.678 1.373-1.283 1.373-.605 0-1.34-.569-1.34-1.263 0-.787.686-1.306 1.291-1.306.605 0 1.332.502 1.332 1.196zM17.66 8.177c0 .778.677 1.373 1.282 1.373s1.34-.57 1.34-1.263c0-.787-.686-1.306-1.29-1.306-.606 0-1.333.502-1.333 1.196z" fill="#292f33"/><path d="M9.536 21.488c0 .276.138.57.36.794 1.39 1.397 3.234 2.534 5.716 2.526 2.878-.01 4.99-.935 6.49-2.868a.902.902 0 00.179-.486c-1.172 1.244-4.189 2.036-6.443 2.005-2.545-.034-5.353-.978-6.302-1.971z" fill="#dd2e44"/></svg>