<svg xmlns="http://www.w3.org/2000/svg" width="120" height="120" viewBox="0 0 31.75 31.75"><defs><mask maskUnits="userSpaceOnUse" id="a"><rect width="31.75" height="22.886" x=".066" y="4.432" ry="3.678" fill="#fff" stroke-width=".132"/></mask></defs><g mask="url(#a)"><path fill="#001f7e" d="M-2.421 1.615H34.02v28.629H-2.421z"/><path d="M32.6.853L15.806 12.598.052 1.583-4.33 5.027 11.083 15.9-5.23 27.306l4.81 3.378 16.228-11.45 17.264 12.18 4.81-3.378L20.53 15.903 36.983 4.297z" fill="#fff"/><path d="M32.088 2.326c-.445.284-15.906 11.28-15.906 11.28l.324.741-.617 1.41.036.026-.205.144C15.04 15.442.608 5.179.174 4.9L-1.37 6.003l15.612 10.961-14.37 10.089 1.544 1.1c.445-.284 15.906-11.28 15.906-11.28l-.062-.14c2.27 1.614 14.128 10.046 14.534 10.305l1.543-1.102-15.884-11.15L33.631 3.426l-1.543-1.101z" fill="#d01427"/><path d="M11.488 1.82v9.65H-3.218v8.798h14.706v10.037h8.885V20.268h15.52V11.47h-15.52V1.82z" fill="#fff"/><path d="M13.094 2.649v10.54H-.8v5.267h13.895v11.747h5.497V18.456h15.323V13.19H18.591V2.649h-5.497z" fill="#d01427"/></g></svg>