<svg width="120" height="120" viewBox="0 0 31.75 31.75" xmlns="http://www.w3.org/2000/svg"><path style="fill:#fff" d="M3.678 4.432h24.394A3.67 3.67 0 0 1 31.75 8.11v15.53a3.67 3.67 0 0 1-3.678 3.678H3.678A3.67 3.67 0 0 1 0 23.64V8.11a3.67 3.67 0 0 1 3.678-3.678z"/><path style="fill:#001f7e" d="m11.422 22.281-7.138 5.036h-.606 24.394-.872l-6.893-4.863v4.863h-8.885zM0 20.268v3.334l4.77-3.334zM0 8.128v3.342h4.737L0 8.128zM31.744 7.945l-4.997 3.525h5.002v8.798h-5.042l5.038 3.523h.002l.003-.151V8.11c0-.08 0-.08-.004-.164l-.001-.001zM3.678 4.432h.383l7.36 5.147V4.432h8.886v4.972l7.109-4.972h.657-.001z"/><path style="fill:#d01427" d="m28.9 4.526-8.593 6.104v.84h1.801l8.536-5.993a3.66 3.66 0 0 0-1.743-.95v-.001zM1.035 5.548a3.662 3.662 0 0 0-.897 1.56L6.35 11.47h3.027L1.034 5.548zm8.434 14.72-8.441 5.925c.462.481 1.048.826 1.692.999 1.89-1.334 5.53-3.919 8.703-6.174v-.75H9.468zm12.7 0c2.832 2.012 5.766 4.098 8.47 6.008.436-.423.759-.948.94-1.527l-6.383-4.481H22.17z"/><path style="fill:#d01427" d="M13.027 4.432v8.757H0v5.267h13.029v8.862h5.497v-8.862h13.223V13.19H18.525V4.432z"/></svg>
