<svg xmlns="http://www.w3.org/2000/svg" width="120" height="120" viewBox="0 0 31.75 31.75"><path d="M7.693 16.833c-.608 1.174-1.892 4.253-.724 5.896 2.36 3.036 5.425 5.574 8.878 7.897 3.454-2.323 6.518-4.86 8.879-7.897 1.167-1.643-.116-4.722-.724-5.896l-8.155 4.133-8.154-4.133z" fill="#293137"/><rect width="19.675" height="19.675" x="10.37" y="-9.693" transform="scale(1.11898 .8648) rotate(45)" ry="1.874" fill="#333d42"/><path d="M7.297 21.703a1.782 1.782 0 00-1.783 1.783v6.268a1.782 1.782 0 001.783 1.781 1.782 1.782 0 001.782-1.781v-6.268a1.782 1.782 0 00-1.782-1.783z" fill="#fcae3c"/><circle cx="7.275" cy="22.819" r="2.551" fill="#fdda8a"/><path d="M14.512 10.906a.932.932 0 00-.594.234l-6.93 5.985c-.455.455-.644.865-.644 1.43v4.099a.933.933 0 001.865 0V18.69l6.946-6.157a.932.932 0 00-.643-1.628z" color="#000" fill="#fcae3c"/><circle cx="15.875" cy="11.524" r="2.551" fill="#293137"/></svg>